<svg xmlns="http://www.w3.org/2000/svg" xmlns:xlink="http://www.w3.org/1999/xlink" aria-hidden="true" role="img" class="iconify iconify--logos" width="35.93" height="32" preserveAspectRatio="xMidYMid meet" viewBox="0 0 256 228">
  <path fill="#00D8FF" d="M128 0C97.8 0 69.8 8.2 48.2 22.3C26.1 36.8 14.3 56.6 14.3 76.8c0 20.2 11.8 40 33.9 54.5C69.8 145.5 97.8 153.7 128 153.7c30.2 0 58.2-8.2 79.8-22.3c22.1-14.5 33.9-34.3 33.9-54.5c0-20.2-11.8-40-33.9-54.5C186.2 8.2 158.2 0 128 0Zm0 15.9c27.1 0 51.9 7.2 70.4 19.2c17.9 11.7 27.4 26.6 27.4 41.7c0 15.1-9.5 30-27.4 41.7c-18.5 12-43.3 19.2-70.4 19.2c-27.1 0-51.9-7.2-70.4-19.2C39.7 106.8 30.2 91.9 30.2 76.8c0-15.1 9.5-30 27.4-41.7c18.5-12 43.3-19.2 70.4-19.2Z"/>
  <path fill="#00D8FF" d="M42.9 38.2c-15.1 26.2-22.2 54.5-20.1 80.2c2.2 26.3 13.9 45.7 31.4 55.8c17.5 10.1 40.2 9.4 64.7-.6c25.4-10.3 50.1-30.5 65.2-56.7c15.1-26.2 22.2-54.5 20.1-80.2c-2.2-26.3-13.9-45.7-31.4-55.8c-17.5-10.1-40.2-9.4-64.7.6c-25.4 10.3-50.1 30.5-65.2 56.7Zm13.8 8c13.5-23.4 35.3-41.2 57.8-50.3c21.7-8.8 41.1-8.7 54.3-1.1c13.2 7.6 22 24.6 23.7 47.9c1.8 24-4.8 50.5-18.3 73.9c-13.5 23.4-35.3 41.2-57.8 50.3c-21.7 8.8-41.1 8.7-54.3 1.1c-13.2-7.6-22-24.6-23.7-47.9c-1.8-24 4.8-50.5 18.3-73.9Z"/>
  <path fill="#00D8FF" d="M213.1 38.2c-15.1-26.2-39.8-46.4-65.2-56.7c-24.5-10-47.2-10.7-64.7-.6c-17.5 10.1-29.2 29.5-31.4 55.8c-2.1 25.7 5 54 20.1 80.2c15.1 26.2 39.8 46.4 65.2 56.7c24.5 10 47.2 10.7 64.7.6c17.5-10.1 29.2-29.5 31.4-55.8c2.1-25.7-5-54-20.1-80.2Zm-13.8 8c13.5 23.4 20.1 49.9 18.3 73.9c-1.7 23.3-10.5 40.3-23.7 47.9c-13.2 7.6-32.6 7.7-54.3-1.1c-22.5-9.1-44.3-26.9-57.8-50.3c-13.5-23.4-20.1-49.9-18.3-73.9c1.7-23.3 10.5-40.3 23.7-47.9c13.2-7.6 32.6-7.7 54.3 1.1c22.5 9.1 44.3 26.9 57.8 50.3Z"/>
  <circle cx="128" cy="114" r="17" fill="#00D8FF"/>
</svg>
